PathFileType	4	(X/Y/Z)	C:/Users/beibeiliu/ov580/test_trc/User1\sequence.5_training_dense_left.trc
DataRate	CameraRate	NumFrames	NumMarkers	Units	OrigDataRate	OrigDataStartFrame	OrigNumFrames
120	120	24	19	mm	120	101	269
Frame#	Time	ThumbCMC			ThumbMCP			ThumbIP			ThumbTip			IndexMCP			IndexPIP			IndexTip			MiddleMCP			MiddlePIP			MiddleTip			RingMCP			RingPIP			RingTip			PinkyMCP			PinkyPIP			PinkyTip			BackHand1			BackHand2			BackHand3	
		X0	Y0	Z0	X1	Y1	Z1	X2	Y2	Z2	X3	Y3	Z3	X4	Y4	Z4	X5	Y5	Z5	X6	Y6	Z6	X7	Y7	Z7	X8	Y8	Z8	X9	Y9	Z9	X10	Y10	Z10	X11	Y11	Z11	X12	Y12	Z12	X13	Y13	Z13	X14	Y14	Z14	X15	Y15	Z15	X16	Y16	Z16	X17	Y17	Z17	X18	Y18	Z18	
100	0.833333	-229.372	116.797	0.879876	-204.219	114.17	-34.5373	-193.878	98.039	-54.8537	-181.845	74.384	-68.0163	-263.666	70.6521	-62.2812	-268.355	54.1987	-80.3624	-274.83	32.4358	-100.178	-234.017	45.7122	-66.4836	-201.631	51.4151	-69.7644	-193.98	76.119	-37.5691	-222.864	34.3061	-46.7921	-191.139	46.1792	-46.1861	-185.514	67.9398	-18.0198	-217.096	21.5501	-25.5058	-193.682	38.9396	-28.6481	-192.587	65.3511	-9.75741	-260.076	49.8263	1.92104	-257.483	67.8942	36.5807	-261.778	92.1531	4.10545	
101	0.841667	-230.631	114.124	-6.55694	-204.737	110.165	-31.2094	-192.955	93.1045	-52.4595	-179.014	72.3184	-64.4364	-256.227	63.3989	-65.6348	-257.306	47.2835	-83.4067	-259.487	21.1899	-101.994	-227.272	43.6899	-62.4745	-190.261	50.6617	-61.2326	-188.848	70.7463	-30.5986	-213.629	31.7011	-45.4313	-181.388	46.0157	-36.9835	-182.851	67.1472	-13.4554	-210.773	19.5998	-23.2136	-188.883	37.6174	-24.5765	-190.724	64.996	-3.37916	-257.783	47.0326	0.673404	-257.302	61.0003	31.2899	-263.394	87.0678	-2.22204	
102	0.85	-230.088	112.556	-7.15735	-202.527	109.423	-34.7324	-188.424	92.8564	-51.5619	-173.466	70.1285	-60.9559	-248.655	57.3244	-70.3311	-246.527	40.2904	-86.7343	-242.88	17.9911	-100.125	-214.982	38.8242	-61.5454	-182.412	52.6345	-59.9333	-184.332	73.2245	-26.1323	-205.1	28.1816	-40.2866	-176.338	47.6477	-33.3601	-181.096	66.9098	-7.06945	-206.319	19.9107	-21.2747	-183.202	40.1434	-19.1478	-189.326	63.9235	1.65585	-252.853	41.7936	-1.28725	-257.288	60.7274	27.6904	-260.677	80.3018	-3.21574	
103	0.858333	-227.702	107.798	-4.54371	-200.824	109.46	-29.8856	-182.689	95.6446	-50.078	-167.001	71.374	-58.4225	-238.865	53.8216	-68.3592	-234.163	35.8667	-86.8754	-228.159	15.4818	-104.056	-205.967	40.1915	-59.7553	-173.11	53.6116	-51.3772	-179.012	74.6598	-23.3395	-197.27	30.9051	-40.6978	-170.701	48.945	-30.116	-180.766	69.4322	-3.07168	-196.894	19.4065	-20.6574	-177.766	41.8806	-15.3774	-189.742	66.4189	3.5144	-246.893	39.7075	-3.39996	-254.975	56.6358	26.2393	-256.272	77.1747	-4.30901	
104	0.866667	-226.864	109.345	-1.8789	-198.082	109.949	-28.8918	-177.94	97.7685	-47.6435	-160.938	72.3062	-55.1881	-230.004	54.9576	-69.9215	-221.816	35.2715	-87.6729	-213.85	14.0998	-103.71	-197.205	40.9314	-56.9031	-166.26	55.9971	-48.7987	-178.798	79.248	-17.0791	-186.188	31.712	-38.3205	-164.439	50.3845	-27.4101	-177.076	72.1928	-1.50656	-193.187	20.4249	-17.8397	-172.127	42.6966	-12.7202	-184.454	66.1816	6.41837	-243.417	36.9057	-4.24079	-254.656	53.1829	30.2803	-252.302	79.7738	-4.58537	
105	0.875	-225.068	108.139	-3.27072	-194.97	114.179	-24.8698	-176.533	98.2624	-43.1138	-157.67	82.8262	-48.9482	-221.723	59.5936	-70.8067	-212.855	41.0064	-84.4656	-203.187	20.8848	-105.635	-191.233	48.339	-58.5216	-160.535	60.0965	-47.3461	-172.598	82.4087	-15.2219	-185.475	34.2942	-36.7362	-158.842	57.2846	-22.8665	-174.653	75.2443	3.64834	-183.778	21.7493	-15.1285	-165.234	44.3912	-8.49326	-182.733	67.7781	4.44273	-238.617	41.9631	-6.1202	-251.85	55.2724	26.8052	-247.482	74.6608	-7.05799	
106	0.883333	-222.933	114.69	-0.743459	-191.294	121.479	-20.9116	-171.136	104.488	-39.9944	-151.986	81.9135	-45.7319	-213.553	61.5485	-71.7727	-204.326	46.6454	-87.714	-191.743	28.6525	-103.475	-180.715	51.1001	-56.4249	-155.01	65.6048	-42.207	-170.771	83.0968	-8.51828	-178.441	38.9746	-35.4736	-154.55	56.991	-17.9803	-169.529	73.7318	6.37769	-176.187	28.5034	-16.7262	-159.668	47.3325	-3.02555	-182.597	69.7217	13.9195	-231.793	39.9611	-6.85443	-248.194	54.2692	27.0101	-245.598	80.6931	-5.98707	
107	0.891667	-219.991	114.42	3.91821	-187.572	120.818	-19.615	-167.52	110.046	-33.5479	-145.957	89.8102	-41.2329	-206.158	70.8519	-69.3276	-193.283	54.6768	-86.0973	-178.021	36.9682	-101.737	-172.516	57.3116	-53.101	-148.135	73.7607	-35.3281	-165.128	86.2516	-6.07054	-168.999	43.802	-31.937	-148.344	60.306	-12.1448	-168.629	79.5551	9.5494	-171.043	31.0841	-15.5254	-156.997	51.5326	-2.21938	-178.585	71.3243	13.3931	-227.417	41.2639	-7.86207	-245.055	54.4258	24.2792	-243.112	80.8173	-8.37655	
108	0.9	-219.079	117.213	5.59271	-186.245	124.017	-12.7776	-162.678	117.503	-28.7418	-141.411	100.259	-32.8734	-197.31	77.4449	-68.5368	-182.646	64.0313	-85.3174	-164.659	50.9173	-104.368	-165.127	67.1496	-51.8164	-142.854	82.2327	-28.4423	-165.837	94.6065	-1.39014	-159.132	51.48	-28.9731	-144.059	67.9986	-7.49153	-168.213	82.4973	13.8366	-164.412	36.927	-12.7872	-151.92	58.4502	4.84044	-173.924	76.5607	15.9888	-222.789	46.7429	-10.7157	-242.541	54.7106	18.7749	-236.322	81.8124	-8.96828	
109	0.908333	-217.002	118.411	5.77778	-184.04	133.761	-8.48224	-160.198	122.964	-21.2694	-137.174	104.664	-27.4147	-187.489	82.4292	-65.7452	-173.525	74.9363	-80.7862	-154.842	64.4175	-96.9644	-162.989	73.4936	-46.6699	-137.617	89.7962	-23.8219	-161.123	96.2323	4.1452	-155.178	58.9517	-26.6079	-142.519	78.4179	-0.72885	-164.474	85.6915	18.6143	-157.104	42.5054	-9.99404	-149.702	66.4226	5.78777	-173.217	79.5457	22.6829	-217.853	49.3391	-7.84333	-241.025	56.0635	19.0638	-236.134	85.6161	-7.13767	
110	0.916667	-218.305	124.173	11.6239	-181.702	138.005	-5.36598	-157.697	128.164	-17.3542	-137.961	110.639	-20.8815	-181.889	91.8662	-62.73	-161.765	82.5116	-78.6602	-144.713	76.1778	-92.6079	-154.717	82.925	-42.8647	-134.601	95.9436	-16.8635	-164.897	104.051	9.96427	-151.232	67.2623	-24.3106	-138.902	84.2065	2.12311	-164.946	89.7906	23.1814	-154.535	50.5592	-9.18935	-146.101	70.5996	9.3001	-171.205	81.9553	22.2219	-212.587	52.2593	-7.98041	-236.59	56.1636	19.1681	-233.366	89.1563	-7.4175	
111	0.925	-217.569	125.349	12.7427	-185.555	141.857	3.58109	-159.197	136.482	-10.7728	-133.9	122.608	-15.0552	-176.951	100.129	-60.1858	-157.711	93.2557	-74.3071	-133.124	86.8451	-88.9453	-150.928	91.4159	-40.4232	-132.707	102.166	-13.6834	-163.137	106.706	13.7188	-146.876	72.5133	-19.2263	-136.596	89.2246	7.63745	-164.544	93.7252	25.4217	-151.437	52.4688	-6.4576	-140.508	74.8249	13.5511	-173.346	85.2389	28.9012	-206.052	58.1599	-11.988	-232.903	59.8439	17.6269	-229.541	88.5845	-4.37956	
112	0.933333	-219.153	129.551	16.2713	-184.075	146.198	5.22594	-158.401	141.191	-6.22653	-131.357	127.608	-9.45369	-174.722	108.411	-57.4896	-151.929	106.621	-74.461	-126.141	100.606	-86.9963	-150.049	93.1621	-35.628	-131.722	112.489	-11.8258	-160.428	113.781	15.4799	-142.754	80.689	-16.6767	-135.786	96.6733	10.2216	-164.991	99.4904	26.3168	-145.061	62.9325	-3.72265	-140.401	81.7008	13.7307	-171.837	88.0619	27.0861	-203.989	59.5158	-7.38969	-228.074	60.8015	16.1836	-227.347	91.111	-6.43966	
113	0.941667	-217.367	131.834	15.2325	-186.761	149.967	9.77254	-157.285	148.297	-2.05942	-130.306	133.15	-5.33981	-172.39	115.34	-54.1811	-147.45	115.038	-71.2325	-123.067	114.039	-82.9544	-143.256	102.283	-31.9133	-131.759	120.367	-7.9032	-167.112	115.467	17.3148	-139.705	89.4202	-15.0735	-136.293	105.219	11.5994	-168.485	101.684	28.8558	-143.387	67.4233	-2.61442	-139.138	88.69	20.8767	-171.839	91.1384	31.1105	-200.032	66.2602	-10.7518	-224.75	58.5356	17.7762	-226.371	94.2034	-3.28886	
114	0.95	-219.663	130.442	19.8566	-185.099	153.115	9.83795	-157.081	151.973	-0.259714	-134.214	139.076	0.762253	-170.995	123.392	-53.7067	-146.28	126.881	-67.0483	-123.115	124.406	-75.6659	-146.822	113.308	-32.2935	-134.28	126.959	-0.699679	-163.701	124.466	18.1391	-136.065	95.7233	-12.3966	-135.105	111.361	13.4051	-165.496	108.317	29.1206	-142.579	75.2606	-3.7466	-137.357	96.4855	17.7679	-167.046	96.841	32.6056	-197.055	67.8883	-6.1112	-218.375	60.7954	15.5967	-224.279	93.4589	-3.15085	
115	0.958333	-217.436	132.434	19.0477	-188.91	156.451	16.1814	-156.551	158.565	4.68963	-133.267	144.535	4.19276	-171.312	130.157	-51.2139	-145.477	135.725	-65.3806	-124.049	138.657	-73.1163	-143.453	116.944	-29.7235	-134.321	131.188	2.21778	-165.189	127.39	17.8562	-139.682	102.134	-14.3276	-137.626	119.333	18.5939	-167.034	112.48	28.1844	-136.047	82.6188	-1.93153	-133.955	100.179	21.2965	-167.318	102.813	30.4711	-192.598	71.583	-7.93455	-218.199	65.0858	15.6256	-222.708	101.103	-3.7213	
116	0.966667	-219.7	134.771	22.1019	-186.166	160.906	14.8403	-159.468	163.179	8.98581	-134.416	146.011	6.72255	-169.792	134.386	-48.1353	-146.994	139.665	-60.2598	-121.348	147.153	-70.3878	-144.482	121.656	-29.2786	-134.588	140.235	1.19265	-167.09	126.937	18.2857	-137.204	106.031	-12.3258	-136.8	124.638	18.4233	-165.382	114.259	30.7551	-135.608	89.7226	-1.90265	-131.063	105.874	21.3426	-163.313	106.603	35.0269	-193.092	76.8692	-9.92282	-215.071	63.7682	15.7425	-223.533	100.928	-2.26507	
117	0.975	-219.132	138.658	23.5243	-186.386	167.189	17.5283	-160.278	166.158	10.7797	-134.611	152.34	9.30554	-166.721	139.214	-48.5377	-145.23	149.756	-60.1277	-119.379	155.582	-67.95	-143.889	127.018	-27.8567	-133.114	141.088	2.40086	-165.096	129.507	19.692	-137.15	114.442	-11.4841	-133.91	129.221	16.2917	-165.252	117.66	30.4759	-134.182	90.232	-0.910955	-131.401	110.637	22.7516	-164.094	110.848	34.2541	-188.357	79.9725	-9.75966	-215.597	70.7767	19.2305	-217.921	101.228	-2.49802	
118	0.983333	-216.374	139.239	22.5869	-186.643	168.517	17.9685	-159.505	167.382	10.4086	-130.59	159.042	11.5105	-168.503	146.426	-47.7127	-144.908	156.681	-58.9571	-120.73	162.468	-64.9317	-144.688	134.74	-26.3883	-134.723	150.496	2.54583	-167.801	134.894	20.2267	-131.666	118.877	-7.64822	-132.626	132.069	20.5431	-166.159	120.297	32.2692	-132.268	96.9476	0.499372	-129.282	116.279	23.4854	-163.368	115.451	33.721	-186.932	80.4648	-6.77354	-211.48	70.7119	19.5436	-219.756	106.678	1.11981	
119	0.991667	-215.357	142.488	22.8218	-187.799	174.164	18.9354	-157.961	175.042	10.9089	-131.748	161.486	12.3153	-170.206	151.887	-44.4499	-147.21	162.243	-55.8447	-120.085	171.154	-63.875	-140.599	139.577	-24.7623	-135.463	154.653	8.26019	-170.261	138.566	21.3889	-131.394	125.002	-8.34179	-134.848	140.21	21.6484	-162.973	125.239	32.9891	-130.225	104.65	1.17241	-130.242	121.512	25.7301	-163.594	117.519	31.8993	-182.909	85.71	-9.5066	-206.405	73.5583	17.8177	-216.877	106.171	0.902868	
120	1	-217.946	147.662	25.3186	-190.253	174.103	22.606	-159.631	176.957	14.0558	-135.338	169.18	14.6019	-165.015	156.687	-45.1963	-144.983	166.501	-52.8255	-121.698	177.952	-61.4434	-141.981	142.452	-24.0338	-134.969	159.746	8.00109	-165.063	143.42	22.3947	-134.474	128.91	-9.7697	-132.808	143.521	21.4548	-164.507	126.7	33.0118	-129.114	112.549	1.7842	-132.893	128.447	25.725	-159.267	123.075	35.354	-182.965	88.5655	-5.54471	-204.876	77.4172	19.2575	-214.925	115.109	-1.83169	
121	1.00833	-216.724	152.675	26.2564	-189.869	179.217	25.558	-159.661	183.014	15.3243	-129.83	170.862	13.5002	-163.178	160.554	-42.34	-143.096	171.8	-51.1089	-115.131	182.949	-58.7675	-138.157	150.947	-20.9277	-133.372	165.955	6.46998	-163.245	146.115	24.779	-130.445	131.207	-5.62695	-131.641	143.868	25.8414	-161.654	130.096	34.0476	-127.462	112.155	1.60442	-127.212	130.396	26.9948	-157.668	123.853	37.142	-180.365	96.4384	-7.29779	-204.68	80.8166	20.4008	-214.932	116.465	0.334772	
122	1.01667	-214.407	151.135	28.7499	-188.175	182.024	24.0561	-156.233	188.736	15.7142	-129.947	175.756	14.7678	-161.507	166.988	-42.2405	-143.242	177.489	-49.0144	-120.488	189.663	-55.8883	-137.805	154.589	-20.8981	-132.841	168.971	9.95874	-166.731	152.307	24.2277	-127.67	137.579	-3.65081	-131.048	148.654	28.0106	-159.011	134.225	35.3416	-122.708	119.41	4.58845	-126.645	134.647	27.1541	-158.414	128.452	33.8823	-176.343	98.5128	-7.58417	-203.768	83.789	18.1996	-213.426	121.864	1.56833	
123	1.025	-214.041	158.524	26.9052	-185.242	186.504	23.6724	-156.097	189.092	16.1603	-128.894	181.177	18.1418	-164.194	171.61	-40.1148	-138.987	182.429	-50.5613	-115.05	196.361	-56.1378	-137.691	158.967	-20.4949	-130.376	169.079	11.6149	-164.419	155.744	24.5474	-130.43	140.774	-6.42253	-130.327	152.166	27.6069	-161.061	138.08	34.5446	-125.734	120.117	2.84219	-128.246	138.008	27.4737	-156.338	130.424	38.6198	-177.827	99.936	-3.9831	-201.878	89.9268	16.7752	-211.214	120.341	3.01132	
